<svg width="512" height="512" viewBox="0 0 512 512" fill="none" xmlns="http://www.w3.org/2000/svg">
  <circle cx="256" cy="256" r="240" fill="#FF6B35"/>
  <path d="M256 16C123.45 16 16 123.45 16 256S123.45 496 256 496 496 388.55 496 256 388.55 16 256 16ZM256 464C141.31 464 48 370.69 48 256S141.31 48 256 48 464 141.31 464 256 370.69 464 256 464Z" fill="#1A5F7A" stroke="#1A5F7A" stroke-width="2"/>
  <path d="M409.37 154.39C375.94 101.33 318.63 64 253.33 64C188.03 64 130.71 101.33 97.29 154.39" stroke="#1A5F7A" stroke-width="12" stroke-linecap="round"/>
  <path d="M97.29 357.61C130.71 410.67 188.03 448 253.33 448C318.63 448 375.94 410.67 409.37 357.61" stroke="#1A5F7A" stroke-width="12" stroke-linecap="round"/>
</svg>